<svg height="503pt" viewBox="0 0 503 503.85045" width="503pt" xmlns="http://www.w3.org/2000/svg"><path d="m478.851562 296.699219v190.363281c0 4.636719-3.757812 8.394531-8.394531 8.394531h-436.457031c-4.636719 0-8.394531-3.757812-8.394531-8.394531v-385.761719c-.082031-5.671875 1.816406-11.191406 5.371093-15.613281 69.078126-85.023438 179.285157-77.050781 179.285157-77.050781s0 41.96875 8.394531 41.96875c8.390625 0 25.179688 100.71875 25.179688 100.71875s16.785156-8.390625 25.179687 0c3.441406 3.441406 2.6875 20.648437 1.175781 42.054687-1.261718 17.203125-2.9375 37.097656-3.441406 54.890625-5.335938-3.765625-11.925781-5.316406-18.382812-4.320312-12.523438 2.273437-21.550782 13.289062-21.320313 26.019531v82.800781h41.96875c2.226563 0 4.359375-.886719 5.933594-2.460937 1.574219-1.574219 2.460937-3.707032 2.460937-5.933594v-58.753906h25.179688l8.394531-2.351563v69.5c0 4.632813 3.757813 8.390625 8.390625 8.390625h33.574219c4.636719 0 8.394531-3.757812 8.394531-8.390625v-75.542969c-.027344-4.949218-1.484375-9.789062-4.195312-13.933593.5-.585938.921874-1.089844 1.425781-1.59375 1.511719-1.679688 3.019531-3.355469 4.363281-4.867188 3.691406-4.335937 7.796875-8.296875 12.253906-11.835937.34375-.253906.710938-.476563 1.09375-.671875.550782-.367188 1.183594-.597657 1.84375-.671875 33.574219.160156 66.03125 12.066406 91.742188 33.660156 5.664062 4.855469 8.9375 11.929688 8.980468 19.386719zm0 0" fill="#cb8252"/><path d="m478.851562 296.699219v190.363281c0 4.636719-3.757812 8.394531-8.394531 8.394531h-436.457031c-4.636719 0-8.394531-3.757812-8.394531-8.394531v-218.226562c60.265625-36.175782 159.476562-59.34375 210.589843-69.582032 20.144532-3.945312 32.820313-5.960937 32.820313-5.960937l1.175781.085937c-1.261718 17.203125-2.9375 37.097656-3.441406 54.890625-5.339844-3.765625-11.921875-5.328125-18.382812-4.363281-4.640626.707031-8.964844 2.78125-12.421876 5.957031-.515624.40625-.992187.855469-1.425781 1.34375-4.800781 5.050781-7.476562 11.75-7.472656 18.71875v74.449219c0 4.636719 3.757813 8.394531 8.394531 8.394531h33.574219c4.636719 0 8.394531-3.757812 8.394531-8.394531v-58.753906h25.179688l8.394531-2.351563v69.5c0 4.632813 3.757813 8.390625 8.390625 8.390625h33.574219c4.636719 0 8.394531-3.757812 8.394531-8.390625v-75.542969c-.027344-4.949218-1.484375-9.789062-4.195312-13.933593.5-.585938.921874-1.089844 1.425781-1.59375 1.511719-1.679688 3.019531-3.355469 4.363281-4.867188 3.171875-3.621093 6.5625-7.039062 10.15625-10.242187.753906-.585938 1.425781-1.171875 2.097656-1.59375.34375-.253906.710938-.476563 1.09375-.671875.550782-.367188 1.183594-.597657 1.84375-.671875 33.574219.160156 66.03125 12.066406 91.742188 33.660156 5.664062 4.855469 8.9375 11.929688 8.980468 19.386719zm0 0" fill="#ffa601"/><path d="m445.277344 296.699219v190.363281c0 4.636719-3.757813 8.394531-8.394532 8.394531h-402.882812c-4.636719 0-8.394531-3.757812-8.394531-8.394531v-218.226562c60.265625-36.175782 159.476562-59.34375 210.589843-69.582032-1.171874 15.777344-2.601562 33.238282-3.019531 49.015625-5.339843-3.765625-11.921875-5.328125-18.382812-4.363281-12.511719 2.296875-21.527344 13.300781-21.320313 26.019531v74.449219c0 4.636719 3.757813 8.394531 8.394532 8.394531h67.148437c4.636719 0 8.394531-3.757812 8.394531-8.394531v8.394531c0 4.632813 3.757813 8.390625 8.390625 8.390625h67.148438c4.636719 0 8.394531-3.757812 8.394531-8.390625v-75.542969c-.027344-4.949218-1.484375-9.789062-4.195312-13.933593.5-.585938.921874-1.089844 1.425781-1.59375 1.511719-1.679688 3.019531-3.355469 4.363281-4.867188 3.171875-3.621093 6.5625-7.039062 10.15625-10.242187 23.285156 4.855468 45.003906 15.410156 63.203125 30.722656 5.664063 4.855469 8.941406 11.929688 8.980469 19.386719zm0 0" fill="#f0cb34"/><path d="m270.191406 193.378906-1.175781-.085937s-159.476563 25.179687-243.410156 75.542969v-50.363282c83.933593-50.359375 218.230469-67.148437 218.230469-67.148437s16.785156-8.390625 25.179687 0c3.441406 3.441406 2.6875 20.648437 1.175781 42.054687zm0 0" fill="#cb4315"/><path d="m243.835938 151.324219s-13.261719 1.679687-34.078126 5.542969c-18.382812 3.355468-42.722656 8.476562-68.996093 15.609374-.097657.066407-.214844.097657-.332031.085938-40.109376 10.246094-78.710938 25.679688-114.824219 45.910156v-117.171875c-.082031-5.671875 1.816406-11.191406 5.371093-15.613281 25.109376-30.496094 58.519532-53.0625 96.191407-64.964844 26.765625-8.90625 54.898437-12.996094 83.09375-12.085937 0 0 0 41.96875 8.394531 41.96875 8.390625 0 25.179688 100.71875 25.179688 100.71875zm0 0" fill="#ffa601"/><path d="m210.261719 159.71875s-29.546875 3.695312-69.5 12.757812c-.097657.066407-.214844.097657-.332031.085938-39.378907 8.570312-77.832032 20.9375-114.824219 36.929688v-108.191407c-.082031-5.671875 1.816406-11.191406 5.371093-15.613281 25.109376-30.496094 58.519532-53.0625 96.191407-64.964844 16.3125-3.105468 32.925781-4.34375 49.519531-3.691406 0 0 0 41.964844 8.394531 41.964844 7.554688 0 21.90625 81.503906 24.675781 97.871094.335938 1.84375.503907 2.851562.503907 2.851562zm0 0" fill="#f0cb34"/><g fill="#cb4315"><path d="m252.226562 386.34375c13.910157 0 25.183594 11.273438 25.183594 25.179688v83.933593h-50.363281v-83.933593c0-13.90625 11.273437-25.179688 25.179687-25.179688zm0 0"/><path d="m168.292969 403.128906c13.90625 0 25.179687 11.273438 25.179687 25.179688v67.148437h-50.359375v-67.148437c0-13.90625 11.273438-25.179688 25.179688-25.179688zm0 0"/><path d="m84.359375 419.917969c13.90625 0 25.179687 11.273437 25.179687 25.179687v50.359375h-50.359374v-50.359375c0-13.90625 11.273437-25.179687 25.179687-25.179687zm0 0"/><path d="m361.34375 495.457031h-50.359375v-67.148437c0-13.90625 11.273437-25.179688 25.179687-25.179688s25.179688 11.273438 25.179688 25.179688zm0 0"/><path d="m445.277344 495.457031h-50.359375v-50.359375c0-13.90625 11.273437-25.179687 25.179687-25.179687s25.179688 11.273437 25.179688 25.179687zm0 0"/><path d="m143.113281 352.769531v-58.753906c0-13.90625 11.273438-25.179687 25.179688-25.179687s25.179687 11.273437 25.179687 25.179687v58.753906c0 4.632813-3.757812 8.390625-8.390625 8.390625h-33.574219c-4.636718 0-8.394531-3.757812-8.394531-8.390625zm0 0"/><path d="m59.179688 361.160156v-41.964844c0-13.90625 11.273437-25.179687 25.179687-25.179687s25.179687 11.273437 25.179687 25.179687v41.964844c0 4.636719-3.757812 8.394532-8.390624 8.394532h-33.574219c-4.636719 0-8.394531-3.757813-8.394531-8.394532zm0 0"/><path d="m445.277344 361.160156v-41.964844c0-13.90625-11.273438-25.179687-25.179688-25.179687s-25.179687 11.273437-25.179687 25.179687v41.964844c0 4.636719 3.757812 8.394532 8.390625 8.394532h33.574218c2.226563 0 4.363282-.882813 5.9375-2.457032 1.574219-1.574218 2.457032-3.710937 2.457032-5.9375zm0 0"/></g><path d="m269.015625 285.621094v67.148437c0 4.632813 3.757813 8.390625 8.394531 8.390625 4.632813 0 8.390625-3.757812 8.390625-8.390625v-58.753906h12.296875l4.492188 6.714844v60.429687c0 4.636719 3.757812 8.394532 8.394531 8.394532 4.632813 0 8.390625-3.757813 8.390625-8.394532v-62.949218c-.035156-.25-.085938-.496094-.148438-.738282-.054687-.570312-.167968-1.132812-.335937-1.679687-.15625-.539063-.371094-1.058594-.640625-1.550781-.082031-.242188-.175781-.476563-.285156-.707032l-8.390625-12.589844c-1.5625-2.328124-4.183594-3.722656-6.984375-3.71875h-25.179688c-4.636718 0-8.394531 3.757813-8.394531 8.394532zm0 0"/><path d="m193.472656 369.554688c4.636719 0 8.394532-3.757813 8.394532-8.394532v-67.144531c0-18.542969-15.03125-33.574219-33.574219-33.574219s-33.574219 15.03125-33.574219 33.574219v67.144531c0 4.636719 3.757812 8.394532 8.394531 8.394532s8.394531-3.757813 8.394531-8.394532v-67.144531c0-9.273437 7.515626-16.789063 16.785157-16.789063 9.273437 0 16.789062 7.515626 16.789062 16.789063v67.144531c0 4.636719 3.757813 8.394532 8.390625 8.394532zm0 0"/><path d="m109.539062 377.949219c4.636719 0 8.394532-3.757813 8.394532-8.394531v-50.359376c0-18.542968-15.03125-33.574218-33.574219-33.574218s-33.574219 15.03125-33.574219 33.574218v50.359376c0 4.636718 3.757813 8.394531 8.394532 8.394531 4.636718 0 8.394531-3.757813 8.394531-8.394531v-50.359376c0-9.273437 7.515625-16.789062 16.785156-16.789062s16.789063 7.515625 16.789063 16.789062v50.359376c0 4.636718 3.757812 8.394531 8.390624 8.394531zm0 0"/><path d="m445.277344 377.949219c4.636718 0 8.394531-3.757813 8.394531-8.394531v-50.359376c0-18.542968-15.03125-33.574218-33.574219-33.574218-18.542968 0-33.574218 15.03125-33.574218 33.574218v50.359376c0 4.636718 3.757812 8.394531 8.394531 8.394531 4.632812 0 8.390625-3.757813 8.390625-8.394531v-50.359376c0-9.273437 7.519531-16.789062 16.789062-16.789062 9.269532 0 16.785156 7.515625 16.785156 16.789062v50.359376c0 4.636718 3.757813 8.394531 8.394532 8.394531zm0 0"/><path d="m59.179688 159.71875c4.636718 0 8.394531-3.757812 8.394531-8.394531v-33.570313c0-4.636718-3.757813-8.394531-8.394531-8.394531-4.636719 0-8.394532 3.757813-8.394532 8.394531v33.570313c0 4.636719 3.757813 8.394531 8.394532 8.394531zm0 0"/><path d="m92.753906 142.933594c4.632813 0 8.394532-3.757813 8.394532-8.394532v-41.96875c0-4.632812-3.761719-8.390624-8.394532-8.390624-4.636718 0-8.394531 3.757812-8.394531 8.390624v41.96875c0 4.636719 3.757813 8.394532 8.394531 8.394532zm0 0"/><path d="m126.328125 126.144531c4.632813 0 8.390625-3.757812 8.390625-8.390625v-41.96875c0-4.636718-3.757812-8.394531-8.390625-8.394531-4.636719 0-8.394531 3.757813-8.394531 8.394531v41.96875c0 4.632813 3.757812 8.390625 8.394531 8.390625zm0 0"/><path d="m159.902344 117.753906c4.632812 0 8.390625-3.757812 8.390625-8.394531v-41.96875c0-4.632813-3.757813-8.394531-8.390625-8.394531-4.636719 0-8.394532 3.761718-8.394532 8.394531v41.96875c0 4.636719 3.757813 8.394531 8.394532 8.394531zm0 0"/><path d="m193.472656 109.359375c4.636719 0 8.394532-3.757813 8.394532-8.394531v-33.574219c0-4.632813-3.757813-8.394531-8.394532-8.394531-4.632812 0-8.390625 3.761718-8.390625 8.394531v33.574219c0 4.636718 3.757813 8.394531 8.390625 8.394531zm0 0"/><path d="m495.636719 377.949219h-8.390625v-81.230469c.003906-9.949219-4.386719-19.394531-11.996094-25.804688-27.265625-22.777343-61.59375-35.378906-97.121094-35.652343-5.136718 0-10.675781 2.289062-35.25 32.003906-.144531.167969-.167968.367187-.296875.542969-.125.175781-.308593.269531-.417969.464844-.140624.316406-.261718.644531-.359374.980468-.242188.507813-.429688 1.039063-.5625 1.585938-.105469.515625-.15625 1.042968-.160157 1.570312-.023437.53125.003907 1.0625.082031 1.585938.09375.523437.242188 1.035156.445313 1.527344.335937 1.03125.910156 1.964843 1.679687 2.726562.203126.296875.429688.578125.671876.839844.167968.136718.378906.167968.554687.292968.175781.128907.265625.304688.453125.421876 4.984375 2.992187 8.015625 8.394531 7.980469 14.210937v67.144531c0 4.636719 3.757812 8.394532 8.394531 8.394532s8.394531-3.757813 8.394531-8.394532v-67.144531c-.03125-8.261719-3.105469-16.226563-8.636719-22.363281 5.570313-7.113282 11.808594-13.679688 18.632813-19.605469 31.011719.621094 60.882813 11.800781 84.679687 31.695313 3.828126 3.222656 6.039063 7.96875 6.042969 12.976562v190.34375h-16.785156v-41.964844c0-18.542968-15.03125-33.574218-33.574219-33.574218-18.542968 0-33.574218 15.03125-33.574218 33.574218v41.964844h-16.785157v-58.753906c0-18.542969-15.03125-33.574219-33.574219-33.574219-18.542968 0-33.574218 15.03125-33.574218 33.574219v58.753906h-16.789063v-75.539062c0-18.542969-15.03125-33.574219-33.574219-33.574219-18.539062 0-33.570312 15.03125-33.570312 33.574219v75.539062h-16.789062v-58.753906c0-18.542969-15.03125-33.574219-33.574219-33.574219s-33.574219 15.03125-33.574219 33.574219v58.753906h-16.785156v-41.964844c0-18.542968-15.03125-33.574218-33.574219-33.574218s-33.574219 15.03125-33.574219 33.574218v41.964844h-16.785156v-213.378906c70.816406-40.628906 192.710938-64.402344 227.035156-70.503906l-.078125 1.015624c-.789062 10.566407-1.492187 21.285157-2.023437 31.835938-2.203125-.488281-4.449219-.746094-6.707032-.769531-18.539062 0-33.570312 15.03125-33.570312 33.574219v83.933593c0 4.632813 3.757812 8.390625 8.390625 8.390625 4.636719 0 8.394531-3.757812 8.394531-8.390625v-83.933593c0-6.285157 3.515625-12.042969 9.101563-14.921876 5.585937-2.878906 12.3125-2.394531 17.429687 1.253907.210938.144531.453125.160156.664063.285156.492187.273437 1.007812.496094 1.542969.664063.546874.1875 1.109374.3125 1.679687.378906.230469.066406.46875.117187.707031.160156.3125-.023438.625-.070312.929688-.144531.457031-.027344.90625-.097657 1.351562-.199219.726563-.179688 1.421875-.460938 2.066406-.839844.234376-.136718.453126-.277344.679688-.4375.640625-.46875 1.207031-1.035156 1.675781-1.679687.117188-.140625.296875-.226563.402344-.375.109375-.152344.121094-.347657.21875-.511719.570313-1.027344.945313-2.148438 1.109375-3.308594 0-.261718.160156-.480468.160156-.738281.367188-13.757813 1.476563-28.65625 2.515625-43.058594 3.007813-40.289062 3.453125-53.859375-2.742187-60.046875-6.6875-5.902344-15.972656-7.882812-24.484375-5.222656-14.167969-82.328125-22.007813-95.414062-28.34375-97.488281-2.566407-11.132813-3.726563-22.546875-3.449219-33.96875.011719-4.410157-3.394531-8.074219-7.789062-8.394531-4.660157-.3007818-115.402344-7.25-186.429688 80.140624-4.726562 5.933594-7.273438 13.308594-7.226562 20.894532v108.800781h-8.390626c-4.636718 0-8.394531 3.757813-8.394531 8.394531 0 4.636719 3.757813 8.394532 8.394531 8.394532h8.390626v33.574218h-8.390626c-4.636718 0-8.394531 3.757813-8.394531 8.394532 0 4.632812 3.757813 8.390624 8.394531 8.390624h8.390626v109.117188h-8.390626c-4.636718 0-8.394531 3.757812-8.394531 8.390625 0 4.636719 3.757813 8.394531 8.394531 8.394531h8.390626v83.933594c0 9.273438 7.515624 16.789062 16.789062 16.789062h436.457031c9.273438 0 16.789063-7.515624 16.789063-16.789062v-92.328125h8.390625c4.636719 0 8.394531-3.757813 8.394531-8.390625 0-4.636719-3.757812-8.394531-8.394531-8.394531zm-233.210938-221.191407c.898438 9.699219.835938 19.460938-.183593 29.148438-27.699219 4.699219-150.242188 27.21875-228.242188 68.601562v-31.191406c81.667969-47.003906 209.566406-63.496094 210.875-63.664062.632812-.128906 1.246094-.335938 1.832031-.613282.285157-.109374.601563-.066406.878907-.199218 4.515624-2.515625 9.808593-3.257813 14.839843-2.082032zm-224.953125-65.78125c55.121094-67.835937 138.914063-73.945312 164.511719-74.113281.941406 32.390625 7.488281 39.886719 12.589844 41.613281 4.644531 9.761719 13.144531 49.230469 19.5 85.730469-29.578125 4.382813-127.648438 21.160157-200.078125 59.90625l.003906-102.835937c-.058594-3.730469 1.167969-7.367188 3.472656-10.300782zm30.101563 396.085938v-41.964844c0-9.273437 7.515625-16.789062 16.785156-16.789062s16.789063 7.515625 16.789063 16.789062v41.964844zm83.933593 0v-58.753906c0-9.269532 7.515626-16.785156 16.785157-16.785156 9.273437 0 16.789062 7.515624 16.789062 16.785156v58.753906zm83.933594 0v-75.539062c0-9.273438 7.515625-16.789063 16.785156-16.789063 9.273438 0 16.789063 7.515625 16.789063 16.789063v75.539062zm83.933594 0v-58.753906c0-9.269532 7.515625-16.785156 16.789062-16.785156 9.269532 0 16.785157 7.515624 16.785157 16.785156v58.753906zm83.933594 0v-41.964844c0-9.273437 7.519531-16.789062 16.789062-16.789062 9.269532 0 16.785156 7.515625 16.785156 16.789062v41.964844zm0 0"/></svg>