<svg id="Layer_1" enable-background="new 0 0 256 256" height="512" viewBox="0 0 256 256" width="512" xmlns="http://www.w3.org/2000/svg"><g><g><path d="m82.729 26.135h-34.142c-1.104 0-2-.896-2-2s.896-2 2-2h34.142c1.104 0 2 .896 2 2s-.896 2-2 2z" fill="#690589"/></g><g><path d="m82.729 46.773h-34.142c-1.104 0-2-.896-2-2s.896-2 2-2h34.142c1.104 0 2 .896 2 2s-.896 2-2 2z" fill="#690589"/></g><g><path d="m82.729 67.413h-34.142c-1.104 0-2-.896-2-2s.896-2 2-2h34.142c1.104 0 2 .896 2 2s-.896 2-2 2z" fill="#690589"/></g><g><path d="m94.907 65.413c3.849 0 6.968-3.12 6.968-6.968v-7.695l93.31 5.546c6.775.403 12.468-5.108 12.219-11.954-.237-6.523-6.04-11.457-12.556-11.07l-92.974 5.526v-7.694c0-3.848-3.12-6.968-6.968-6.968h-12.177v41.278h12.178z" fill="#f4efed"/></g><g><path d="m186.285 188.816c.072-1.185.12-2.376.12-3.579 0-32.257-26.149-58.405-58.405-58.405s-58.405 26.148-58.405 58.405c0 1.203.048 2.394.12 3.579z" fill="#fcc24c"/></g><g><path d="m158.456 190.816h-58.927c-1.012 0-1.865-.757-1.986-1.762-.159-1.324-.236-2.573-.236-3.817 0-17.472 14.214-31.686 31.686-31.686s31.686 14.214 31.686 31.686c0 1.229-.08 2.514-.237 3.818-.122 1.006-.974 1.761-1.986 1.761zm-57.101-4h55.276c.032-.533.048-1.057.048-1.579 0-15.266-12.42-27.686-27.686-27.686s-27.686 12.42-27.686 27.686c0 .522.016 1.046.048 1.579z" fill="#690589"/></g><g><path d="m173.732 190.816h-89.479c-1.043 0-1.911-.802-1.994-1.842-.109-1.37-.162-2.593-.162-3.737 0-25.857 21.037-46.895 46.895-46.895s46.894 21.037 46.894 46.895c0 1.139-.053 2.36-.16 3.735-.082 1.042-.95 1.844-1.994 1.844zm-87.599-4h85.719c.023-.552.035-1.075.035-1.579 0-23.652-19.242-42.895-42.894-42.895s-42.895 19.242-42.895 42.895c0 .505.012 1.029.035 1.579z" fill="#690589"/></g><g><path d="m186.285 190.816h-116.571c-1.058 0-1.933-.823-1.996-1.879-.083-1.369-.124-2.579-.124-3.7 0-33.308 27.098-60.405 60.405-60.405s60.405 27.098 60.405 60.405c0 1.124-.04 2.335-.124 3.701-.063 1.055-.937 1.878-1.995 1.878zm-114.663-4h112.756c.019-.552.027-1.076.027-1.579 0-31.102-25.304-56.405-56.405-56.405-31.102 0-56.405 25.304-56.405 56.405 0 .502.008 1.027.027 1.579z" fill="#690589"/></g><g><path d="m246.017 200.747c0-32.59-26.419-59.009-59.009-59.009s-59.009 26.419-59.009 59.009z" fill="#fcc24c"/></g><g><path d="m187.009 141.739c-1.346 0-2.677.061-4 .15 30.722 2.059 55.009 27.615 55.009 58.858h8c-.001-32.589-26.42-59.008-59.009-59.008z" fill="#dea42e"/></g><g><path d="m246.018 202.747h-118.018c-1.105 0-2-.896-2-2 0-33.641 27.368-61.009 61.009-61.009s61.009 27.368 61.009 61.009c0 1.105-.896 2-2 2zm-115.984-4h113.949c-1.058-30.512-26.209-55.009-56.975-55.009s-55.916 24.497-56.974 55.009z" fill="#690589"/></g><g><path d="m232.367 202.747c-1.105 0-2-.896-2-2 0-23.908-19.45-43.358-43.358-43.358s-43.358 19.45-43.358 43.358c0 1.104-.895 2-2 2-1.104 0-2-.896-2-2 0-26.113 21.245-47.358 47.358-47.358s47.358 21.245 47.358 47.358c0 1.105-.895 2-2 2z" fill="#690589"/></g><g><path d="m217.001 202.747c-1.105 0-2-.896-2-2 0-15.435-12.558-27.992-27.992-27.992-15.436 0-27.993 12.558-27.993 27.992 0 1.104-.895 2-2 2-1.104 0-2-.896-2-2 0-17.641 14.353-31.992 31.993-31.992s31.992 14.352 31.992 31.992c0 1.105-.896 2-2 2z" fill="#690589"/></g><g><path d="m53.581 24.135h9.716v133.689h-9.716z" fill="#fcc24c"/></g><g><path d="m63.297 24.135h9.716v133.689h-9.716z" fill="#fcc24c"/></g><g><path d="m73.013 24.135h9.716v133.689h-9.716z" fill="#fcc24c"/></g><g><path d="m63.297 159.824h-9.716c-1.104 0-2-.896-2-2v-133.689c0-1.104.896-2 2-2h9.716c1.104 0 2 .896 2 2v133.689c0 1.105-.896 2-2 2zm-7.716-4h5.716v-129.689h-5.716z" fill="#690589"/></g><g><path d="m73.013 159.824h-9.716c-1.104 0-2-.896-2-2v-133.689c0-1.104.896-2 2-2h9.716c1.104 0 2 .896 2 2v133.689c0 1.105-.895 2-2 2zm-7.716-4h5.716v-129.689h-5.716z" fill="#690589"/></g><g><path d="m82.729 159.824h-9.716c-1.104 0-2-.896-2-2v-133.689c0-1.104.896-2 2-2h9.716c1.104 0 2 .896 2 2v133.689c0 1.105-.896 2-2 2zm-7.716-4h5.716v-129.689h-5.716z" fill="#690589"/></g><g><path d="m128 200.747c0-32.59-26.419-59.009-59.009-59.009s-59.009 26.42-59.009 59.009z" fill="#fcc24c"/></g><g><path d="m68.991 141.739c1.346 0 2.677.061 4 .15-30.722 2.059-55.009 27.615-55.009 58.858h-8c0-32.589 26.419-59.008 59.009-59.008z" fill="#fce06a"/></g><g><path d="m128 202.747h-118.018c-1.104 0-2-.896-2-2 0-33.641 27.369-61.009 61.009-61.009s61.009 27.368 61.009 61.009c0 1.105-.896 2-2 2zm-115.983-4h113.948c-1.058-30.512-26.209-55.009-56.974-55.009s-55.916 24.497-56.974 55.009z" fill="#690589"/></g><g><path d="m114.35 202.747c-1.104 0-2-.896-2-2 0-23.908-19.451-43.358-43.358-43.358s-43.358 19.45-43.358 43.358c0 1.104-.896 2-2 2s-2-.896-2-2c0-26.113 21.245-47.358 47.358-47.358s47.358 21.245 47.358 47.358c0 1.105-.896 2-2 2z" fill="#690589"/></g><g><path d="m98.984 202.747c-1.104 0-2-.896-2-2 0-15.435-12.558-27.992-27.993-27.992s-27.993 12.558-27.993 27.992c0 1.104-.895 2-2 2-1.104 0-2-.896-2-2 0-17.641 14.352-31.992 31.993-31.992s31.993 14.352 31.993 31.992c0 1.105-.896 2-2 2z" fill="#690589"/></g><g><g><path d="m194.849 33.272-6.261.372c4.85 1.26 8.627 5.464 8.817 10.698.202 5.553-3.506 10.226-8.53 11.579l6.31.375c6.775.403 12.468-5.108 12.219-11.954-.236-6.523-6.039-11.457-12.555-11.07z" fill="#d6d1cf"/></g></g><g><path d="m94.907 67.413h-12.178c-1.105 0-2-.896-2-2v-41.278c0-1.104.895-2 2-2h12.178c4.945 0 8.969 4.023 8.969 8.969v5.572l90.854-5.4c3.762-.22 7.501 1.098 10.28 3.623 2.703 2.456 4.264 5.784 4.395 9.371.138 3.813-1.345 7.527-4.068 10.188-2.725 2.662-6.466 4.063-10.268 3.834l-91.192-5.419v5.571c-.002 4.946-4.025 8.969-8.97 8.969zm-10.178-4h10.178c2.74 0 4.969-2.229 4.969-4.969v-7.693c0-.551.228-1.078.628-1.455.401-.38.938-.59 1.49-.541l93.31 5.545c2.696.153 5.316-.827 7.236-2.702 1.947-1.902 2.966-4.454 2.866-7.184-.091-2.501-1.187-4.829-3.087-6.556-1.988-1.806-4.658-2.748-7.352-2.591l-92.973 5.526c-.552.04-1.089-.162-1.49-.541-.401-.377-.628-.904-.628-1.455v-7.694c0-2.74-2.229-4.969-4.969-4.969h-10.178z" fill="#690589"/></g><g><path d="m252 188.816h-248v7.256c0 19.768 16.025 35.793 35.793 35.793h176.415c19.768 0 35.793-16.025 35.793-35.793v-7.256z" fill="#f4efed"/></g><g><path d="m242 188.816v7.256c0 19.768-16.025 35.792-35.793 35.792h10c19.768 0 35.793-16.025 35.793-35.792v-7.256z" fill="#d6d1cf"/></g><g><path d="m14 188.816v7.256c0 19.768 16.025 35.792 35.793 35.792h-10c-19.768.001-35.793-16.024-35.793-35.792v-7.256z" fill="#fff"/></g><g><path d="m216.207 233.865h-176.415c-20.838 0-37.792-16.954-37.792-37.793v-7.256c0-1.105.895-2 2-2h248c1.104 0 2 .895 2 2v7.256c0 20.839-16.954 37.793-37.793 37.793zm-210.207-43.049v5.256c0 18.634 15.159 33.793 33.792 33.793h176.415c18.634 0 33.793-15.159 33.793-33.793v-5.256z" fill="#690589"/></g><g><path d="m15.411 210.817c-.802 0-1.558-.486-1.866-1.278-1.566-4.047-2.419-8.31-2.535-12.67-.029-1.104.843-2.022 1.947-2.052 1.116-.043 2.022.842 2.052 1.946.102 3.9.865 7.713 2.266 11.33.398 1.03-.113 2.188-1.143 2.588-.237.092-.481.136-.721.136z" fill="#690589"/></g></g></svg>