<svg xmlns="http://www.w3.org/2000/svg" xmlns:xlink="http://www.w3.org/1999/xlink" version="1.1" x="0px" y="0px" viewBox="0 0 30.668 106.25" enable-background="new 0 0 30.668 85" xml:space="preserve"><path d="M10.756,84.826l18.066-6.648c1.462-0.539,2.21-2.159,1.673-3.62c-0.539-1.462-2.159-2.21-3.62-1.673v0.001l-12.048,4.433  c8.491-14.25,11.575-26.886,11.57-37.581c0.003-12.568-4.23-22.343-8.452-28.924C13.719,4.221,9.507,0.769,9.347,0.634  C8.141-0.349,6.364-0.169,5.379,1.036C4.952,1.559,4.744,2.191,4.744,2.818c0,0.817,0.354,1.629,1.037,2.186h0.001  c0,0,0,0,0.014,0.013c0.311,0.258,4.097,3.509,7.757,9.4c3.662,5.9,7.204,14.389,7.205,25.32  c-0.003,9.633-2.742,21.244-10.843,34.808L5.459,62.739c-0.55-1.456-2.178-2.192-3.635-1.644C0.695,61.523,0,62.596,0,63.736  c0,0.33,0.06,0.666,0.183,0.995l6.963,18.444C7.692,84.625,9.304,85.361,10.756,84.826z"/></svg>
