<svg width="30.668" height="106.25" xmlns="http://www.w3.org/2000/svg">
 <g>
  <title>Layer 1</title>
  <path d="m10.756,84.826l18.066,-6.648c1.462,-0.539 2.21,-2.159 1.673,-3.62c-0.539,-1.462 -2.159,-2.21 -3.62,-1.673l0,0.001l-12.048,4.433c8.491,-14.25 11.575,-26.886 11.57,-37.581c0.003,-12.568 -4.23,-22.343 -8.452,-28.924c-4.226,-6.593 -8.438,-10.045 -8.598,-10.18c-1.206,-0.983 -2.983,-0.803 -3.968,0.402c-0.427,0.523 -0.635,1.155 -0.635,1.782c0,0.817 0.354,1.629 1.037,2.186l0.001,0c0,0 0,0 0.014,0.013c0.311,0.258 4.097,3.509 7.757,9.4c3.662,5.9 7.204,14.389 7.205,25.32c-0.003,9.633 -2.742,21.244 -10.843,34.808l-4.456,-11.806c-0.55,-1.456 -2.178,-2.192 -3.635,-1.644c-1.129,0.428 -1.824,1.501 -1.824,2.641c0,0.33 0.06,0.666 0.183,0.995l6.963,18.444c0.546,1.45 2.158,2.186 3.61,1.651z" id="svg_1" fill="#ffffff"/>
 </g>

</svg>
