<svg width="30.667" height="85" xmlns="http://www.w3.org/2000/svg">
 <g>
  <path fill="#f2c73c" id="svg_1" d="m20.913,84.826l-18.066,-6.648c-1.462,-0.539 -2.21,-2.158 -1.673,-3.619c0.539,-1.463 2.159,-2.211 3.62,-1.674l0,0.002l12.048,4.432c-8.491,-14.251 -11.575,-26.885 -11.571,-37.582c-0.003,-12.568 4.23,-22.343 8.452,-28.924c4.227,-6.591 8.439,-10.043 8.599,-10.178c1.206,-0.983 2.982,-0.804 3.968,0.401c0.427,0.523 0.635,1.155 0.635,1.782c0,0.817 -0.354,1.629 -1.037,2.186l-0.001,0c0,0 0,0 -0.014,0.013c-0.311,0.258 -4.097,3.509 -7.757,9.4c-3.662,5.9 -7.204,14.389 -7.205,25.32c0.003,9.634 2.742,21.245 10.843,34.808l4.455,-11.805c0.55,-1.457 2.178,-2.193 3.635,-1.645c1.128,0.428 1.823,1.502 1.823,2.641c0,0.33 -0.06,0.666 -0.183,0.996l-6.962,18.443c-0.546,1.45 -2.157,2.186 -3.609,1.651z"/>
 </g>
</svg>
