<svg xmlns="http://www.w3.org/2000/svg" xmlns:xlink="http://www.w3.org/1999/xlink" version="1.1" x="0px" y="0px" viewBox="0 0 30.667 106.25125" enable-background="new 0 0 30.667 85.001" xml:space="preserve"><path d="M19.913,84.826L1.847,78.178c-1.462-0.539-2.21-2.158-1.673-3.619c0.539-1.463,2.159-2.211,3.62-1.674v0.002l12.048,4.432  C7.351,63.068,4.267,50.434,4.271,39.737c-0.003-12.568,4.23-22.343,8.452-28.924C16.95,4.222,21.162,0.77,21.322,0.635  c1.206-0.983,2.982-0.804,3.968,0.401c0.427,0.523,0.635,1.155,0.635,1.782c0,0.817-0.354,1.629-1.037,2.186h-0.001  c0,0,0,0-0.014,0.013c-0.311,0.258-4.097,3.509-7.757,9.4c-3.662,5.9-7.204,14.389-7.205,25.32  c0.003,9.634,2.742,21.245,10.843,34.808l4.455-11.805c0.55-1.457,2.178-2.193,3.635-1.645c1.128,0.428,1.823,1.502,1.823,2.641  c0,0.33-0.06,0.666-0.183,0.996l-6.962,18.443C22.976,84.625,21.365,85.361,19.913,84.826z"/></svg>
