<svg enable-background="new 0 0 256 256" height="512" viewBox="0 0 256 256" width="512" xmlns="http://www.w3.org/2000/svg"><path d="m166.087 248.199-35.896-25.414-40.4 26.033c-3.327 2.144-7.708-.245-7.708-4.203v-75.196h91.893v74.699c0 4.058-4.578 6.426-7.889 4.081z" fill="#ff4a73"/><path d="m173.979 169.417v74.7c0 4.06-4.58 6.43-7.89 4.08l-7.11-5.03v-73.75z" fill="#ea2a6a"/><path d="m97.079 169.417v74.7l-7.29 4.7c-3.33 2.14-7.71-.24-7.71-4.2v-75.2z" fill="#f973a3"/><path d="m226.535 109.769-19.38 9.625c-2.832 1.406-3.664 5.056-1.721 7.55l13.282 17.055c2.542 3.264.246 8.027-3.891 8.072l-21.614.234c-3.164.034-5.501 2.963-4.833 6.056l4.57 21.145c.873 4.04-3.255 7.335-7.001 5.587l-19.609-9.148c-2.865-1.337-6.236.288-6.975 3.362l-5.057 21.024c-.967 4.022-6.122 5.196-8.736 1.991l-13.666-16.757c-2.001-2.453-5.749-2.453-7.749 0l-13.667 16.757c-2.614 3.206-7.769 2.031-8.736-1.991l-5.058-21.024c-.739-3.074-4.11-4.698-6.975-3.362l-19.609 9.148c-3.746 1.748-7.874-1.547-7.001-5.587l4.57-21.145c.669-3.093-1.668-6.022-4.833-6.056l-21.614-.235c-4.137-.045-6.433-4.808-3.891-8.072l13.282-17.054c1.943-2.495 1.111-6.144-1.721-7.55l-19.379-9.625c-3.701-1.838-3.701-7.118 0-8.956l19.38-9.625c2.832-1.406 3.664-5.056 1.721-7.55l-13.282-17.056c-2.542-3.264-.246-8.027 3.891-8.072l21.614-.234c3.164-.034 5.501-2.963 4.833-6.056l-4.57-21.145c-.873-4.04 3.255-7.335 7.001-5.587l19.609 9.148c2.865 1.337 6.236-.288 6.975-3.362l5.057-21.024c.967-4.022 6.122-5.196 8.736-1.991l13.666 16.757c2.001 2.453 5.749 2.453 7.75 0l13.667-16.756c2.614-3.206 7.769-2.031 8.736 1.991l5.058 21.024c.739 3.074 4.11 4.698 6.975 3.362l19.609-9.148c3.746-1.748 7.874 1.547 7.001 5.587l-4.57 21.145c-.669 3.093 1.668 6.022 4.833 6.056l21.614.235c4.137.045 6.433 4.808 3.891 8.072l-13.282 17.054c-1.943 2.495-1.111 6.144 1.721 7.55l19.379 9.625c3.7 1.838 3.7 7.118-.001 8.956z" fill="#44c7b6"/><path d="m226.535 109.769-19.38 9.625c-2.832 1.406-3.664 5.056-1.721 7.55l13.282 17.055c2.542 3.264.246 8.027-3.891 8.072l-21.614.234c-3.164.034-5.501 2.963-4.833 6.056l4.57 21.145c.873 4.04-3.255 7.335-7.001 5.587l-19.609-9.148c-2.865-1.337-6.236.288-6.975 3.362l-5.057 21.024c-.967 4.022-6.122 5.196-8.736 1.991l-13.666-16.757c-2.001-2.453-5.749-2.453-7.749 0l-13.667 16.757c-2.614 3.206-7.769 2.031-8.736-1.991l-5.058-21.024c-.739-3.074-4.11-4.698-6.975-3.362l-19.609 9.148c-3.746 1.748-7.874-1.547-7.001-5.587l4.57-21.145c.669-3.093-1.668-6.022-4.833-6.056l-21.614-.235c-4.137-.045-6.433-4.808-3.891-8.072l13.282-17.054c1.943-2.495 1.111-6.144-1.721-7.55l-19.379-9.625c-3.701-1.838-3.701-7.118 0-8.956l19.38-9.625c2.832-1.406 3.664-5.056 1.721-7.55l-13.282-17.056c-2.542-3.264-.246-8.027 3.891-8.072l21.614-.234c3.164-.034 5.501-2.963 4.833-6.056l-4.57-21.145c-.873-4.04 3.255-7.335 7.001-5.587l19.609 9.148c2.865 1.337 6.236-.288 6.975-3.362l5.057-21.024c.967-4.022 6.122-5.196 8.736-1.991l13.666 16.757c2.001 2.453 5.749 2.453 7.75 0l13.667-16.756c2.614-3.206 7.769-2.031 8.736 1.991l5.058 21.024c.739 3.074 4.11 4.698 6.975 3.362l19.609-9.148c3.746-1.748 7.874 1.547 7.001 5.587l-4.57 21.145c-.669 3.093 1.668 6.022 4.833 6.056l21.614.235c4.137.045 6.433 4.808 3.891 8.072l-13.282 17.054c-1.943 2.495-1.111 6.144 1.721 7.55l19.379 9.625c3.7 1.838 3.7 7.118-.001 8.956z" fill="#44c7b6"/><path d="m56.229 58.509 21.62-.23c3.16-.04 5.5-2.97 4.83-6.06-4.958-22.935-4.834-21.736-4.62-23.02l-7.95-3.71c-3.74-1.75-7.87 1.55-7 5.59l4.57 21.14c.67 3.09-1.67 6.02-4.83 6.06l-21.62.23c-4.13.05-6.43 4.81-3.89 8.07l13.28 17.06c1.95 2.49 1.12 6.14-1.72 7.55l-19.38 9.62c-3.7 1.84-3.7 7.12 0 8.96l19.38 9.62c2.84 1.41 3.67 5.06 1.72 7.55l-13.28 17.06c-2.54 3.26-.24 8.03 3.89 8.07l21.62.24c3.16.03 5.5 2.96 4.83 6.05l-4.57 21.15c-.87 4.04 3.25 7.33 7 5.58l7.95-3.71c-.215-1.269-.333-.095 4.62-23.02.67-3.09-1.67-6.02-4.83-6.05l-21.62-.24c-4.13-.04-6.43-4.81-3.89-8.07l13.28-17.06c1.95-2.49 1.12-6.14-1.72-7.55l-19.38-9.62c-3.7-1.84-3.7-7.12 0-8.96l19.38-9.62c2.84-1.41 3.67-5.06 1.72-7.55l-13.28-17.06c-2.54-3.26-.24-8.02 3.89-8.07z" fill="#4bdbc3"/><path d="m104.719 175.949-7.95 3.7 4.98 20.68c.97 4.02 6.12 5.2 8.74 1.99l5.2-6.38-4-16.63c-.73-3.08-4.11-4.7-6.97-3.36z" fill="#4bdbc3"/><path d="m111.699 31.279 4-16.64-5.21-6.38c-2.62-3.2-7.77-2.03-8.74 1.99l-4.97 20.69 7.94 3.7c2.87 1.33 6.24-.29 6.98-3.36z" fill="#4bdbc3"/><path d="m144.359 179.309-4 16.63 5.21 6.38c2.62 3.21 7.77 2.03 8.74-1.99l4.97-20.68-7.94-3.7c-2.86-1.34-6.24.28-6.98 3.36z" fill="#3bb2a0"/><path d="m145.569 8.259-5.2 6.38 4 16.64c.73 3.07 4.11 4.69 6.97 3.36l7.95-3.71-4.98-20.68c-.97-4.02-6.12-5.19-8.74-1.99z" fill="#3bb2a0"/><path d="m226.539 100.809-19.38-9.62c-2.84-1.41-3.67-5.06-1.72-7.55l13.28-17.06c2.54-3.26.24-8.02-3.89-8.07l-21.62-.23c-3.16-.04-5.5-2.97-4.83-6.06l4.57-21.14c.87-4.04-3.25-7.34-7-5.59l-7.95 3.71c.214 1.284.333.107-4.62 23.02-.67 3.09 1.67 6.02 4.83 6.06l21.62.23c4.13.05 6.43 4.81 3.89 8.07l-13.28 17.06c-1.95 2.49-1.12 6.14 1.72 7.55l19.38 9.62c3.7 1.84 3.7 7.12 0 8.96l-19.38 9.62c-2.84 1.41-3.67 5.06-1.72 7.55l13.28 17.06c2.54 3.26.24 8.03-3.89 8.07l-21.62.24c-3.16.03-5.5 2.96-4.83 6.05 4.957 22.939 4.835 21.754 4.62 23.02l7.95 3.71c3.74 1.75 7.87-1.54 7-5.58l-4.57-21.15c-.67-3.09 1.67-6.02 4.83-6.05l21.62-.24c4.13-.04 6.43-4.81 3.89-8.07l-13.28-17.06c-1.95-2.49-1.12-6.14 1.72-7.55l19.38-9.62c3.7-1.84 3.7-7.12 0-8.96z" fill="#3bb2a0"/><path d="m228.633 128.28-201.208-.109c-2.761 0-5-2.239-5-5v-35.982c0-2.761 2.239-5 5-5l201.208.109c2.761 0 5 2.239 5 5v35.982c0 2.761-2.238 5-5 5z" fill="#5fcdff"/><path d="m233.636 87.297v35.98c0 2.76-2.24 5-5 5h-15c2.76 0 5-2.24 5-5v-35.98c0-2.76-2.24-5-5-5h15c2.76 0 5 2.24 5 5z" fill="#30b6ff"/><path d="m42.423 128.168h-15c-2.76 0-5-2.24-5-5v-35.98c0-2.76 2.24-5 5-5h15c-2.76 0-5 2.24-5 5v35.98c0 2.76 2.24 5 5 5z" fill="#73d7f9"/><g fill="#5f266d"><path d="m228.818 78.283h-14.184l7.212-9.262c4.567-5.861.445-14.438-7.003-14.528l-21.612-.229c-.626-.008-1.107-.585-.971-1.215l4.57-21.143c1.567-7.271-5.863-13.202-12.602-10.057l-19.606 9.148c-.375.175-.702.07-.863-.009-.192-.093-.439-.281-.53-.66l-5.06-21.034c-1.744-7.221-11.006-9.345-15.729-3.579l-13.669 16.759c-.248.303-.556.367-.771.367s-.524-.064-.771-.366l-13.674-16.766c-4.719-5.765-13.982-3.632-15.725 3.59l-5.049 21.027c-.091.377-.341.568-.535.662-.162.079-.492.184-.865.01l-19.606-9.148c-6.744-3.153-14.169 2.797-12.605 10.058l4.57 21.143c.137.631-.354 1.205-.963 1.212l-21.625.23c-7.435.09-11.567 8.662-6.998 14.527l7.212 9.263h-14.184c-4.962 0-9 4.038-9 9v35.982c0 4.962 4.038 9 9 9h14.182l-7.209 9.259c-4.578 5.876-.423 14.456 7.001 14.529l21.626.24c.387.003.629.205.764.374.134.168.278.449.195.832l-4.57 21.152c-1.564 7.257 5.847 13.195 12.6 10.048l6.28-2.927v58.831c0 4.991 4.053 8.997 8.998 8.997 1.699 0 3.395-.48 4.878-1.434l38.128-24.566 33.689 23.846c5.955 4.227 14.206-.041 14.206-7.342v-58.331l6.274 2.925c6.721 3.146 14.173-2.764 12.605-10.048l-4.571-21.153c-.132-.613.327-1.197.965-1.203l21.615-.239c7.438-.073 11.579-8.659 7.008-14.528l-7.21-9.26h14.182c4.963 0 9-4.038 9-9v-35.984c0-4.962-4.037-9-9-9zm-188.353-14.179c-.511-.655-.046-1.602.777-1.611l21.628-.23c5.69-.072 9.894-5.346 8.689-10.905l-4.569-21.138c-.175-.814.645-1.477 1.398-1.123l19.62 9.154c2.462 1.141 5.277 1.118 7.719-.062 2.437-1.178 4.198-3.361 4.833-5.994l5.049-21.026c.195-.813 1.226-1.041 1.751-.399l13.671 16.761c1.716 2.103 4.256 3.309 6.969 3.309s5.253-1.206 6.97-3.31l13.665-16.754c.537-.657 1.562-.41 1.757.391l5.057 21.021c.626 2.631 2.385 4.818 4.824 5.999 2.447 1.185 5.261 1.207 7.729.06l19.61-9.15c.761-.354 1.574.307 1.398 1.12l-4.569 21.138c-1.205 5.557 2.992 10.835 8.696 10.908l21.615.229c.833.01 1.292.958.782 1.613l-11.04 14.178h-152.989zm129.485 179.999c0 .821-.91 1.291-1.58.815l-35.899-25.411c-1.331-.943-3.104-.982-4.477-.097l-40.396 26.027c-.672.431-1.547-.033-1.547-.835v-62.56l5.337-2.488c.548-.257 1.232.026 1.384.674l5.061 21.022c.808 3.349 3.396 5.904 6.754 6.669.675.154 1.353.229 2.023.229 2.665 0 5.209-1.184 6.95-3.316l13.674-16.756c.396-.487 1.126-.502 1.538.006l13.67 16.75c4.707 5.766 13.981 3.653 15.729-3.585l5.05-21.02c.148-.615.81-.944 1.4-.669l5.33 2.484v62.061zm45.585-97.662c.507.65.056 1.604-.779 1.612l-21.614.239c-5.708.055-9.905 5.344-8.702 10.895l4.57 21.147c.174.811-.64 1.468-1.4 1.112l-19.607-9.139c-5.168-2.413-11.23.515-12.562 6.05l-5.049 21.016c-.197.817-1.223 1.049-1.753.4l-13.665-16.744c-3.605-4.435-10.352-4.421-13.943-.006l-13.669 16.75c-.531.647-1.556.417-1.752-.397l-5.057-21.006c-1.317-5.557-7.413-8.472-12.552-6.063l-19.611 9.141c-.765.355-1.573-.303-1.399-1.111l4.569-21.147c.575-2.654-.067-5.394-1.763-7.517-1.695-2.123-4.224-3.355-6.932-3.381l-21.625-.24c-.824-.008-1.284-.958-.772-1.613l11.037-14.175h152.994zm14.283-23.176c0 .551-.448 1-1 1h-201.636c-.551 0-1-.449-1-1v-35.982c0-.551.449-1 1-1h201.637c.552 0 1 .449 1 1v35.982z"/><path d="m177.01 146.534-6.031-.876c-.451-.066-.841-.349-1.043-.758l-2.697-5.465c-.508-1.03-1.976-1.03-2.485 0l-2.697 5.465c-.202.409-.592.692-1.043.758l-6.031.876c-1.136.165-1.59 1.562-.768 2.363l4.364 4.254c.326.318.475.777.398 1.226l-1.03 6.007c-.194 1.132.994 1.995 2.01 1.46l5.395-2.836c.404-.212.886-.212 1.289 0l5.395 2.836c1.016.534 2.204-.329 2.01-1.46l-1.03-6.007c-.077-.449.072-.908.398-1.226l4.364-4.254c.822-.801.368-2.198-.768-2.363z"/><path d="m101.018 146.534-6.031-.876c-.451-.066-.841-.349-1.043-.758l-2.697-5.465c-.508-1.03-1.976-1.03-2.485 0l-2.697 5.465c-.202.409-.592.692-1.043.758l-6.031.876c-1.136.165-1.59 1.562-.768 2.363l4.364 4.254c.326.318.475.777.398 1.226l-1.03 6.007c-.194 1.132.994 1.995 2.01 1.46l5.395-2.836c.404-.212.886-.212 1.289 0l5.395 2.836c1.016.534 2.204-.329 2.01-1.46l-1.03-6.007c-.077-.449.072-.908.398-1.226l4.364-4.254c.822-.801.368-2.198-.768-2.363z"/><path d="m139.014 146.534-6.031-.876c-.451-.066-.841-.349-1.043-.758l-2.697-5.465c-.508-1.03-1.976-1.03-2.484 0l-2.697 5.465c-.202.409-.592.692-1.043.758l-6.031.876c-1.136.165-1.59 1.562-.768 2.363l4.364 4.254c.326.318.475.777.398 1.226l-1.03 6.007c-.194 1.132.994 1.995 2.01 1.46l5.395-2.836c.404-.212.886-.212 1.289 0l5.395 2.836c1.016.534 2.204-.329 2.01-1.46l-1.03-6.007c-.077-.449.072-.908.398-1.226l4.364-4.254c.821-.801.367-2.198-.769-2.363z"/><path d="m81.563 51.435c.151.598.57 1.092 1.135 1.34.563.246 1.21.221 1.754-.072l.762-.411v15.018c0 1.104.896 2 2 2h2.744c1.104 0 2-.896 2-2v-20.983c0-1.104-.896-2-2-2h-2.421c-.329 0-.653.081-.944.237l-4.583 2.453c-.811.434-1.221 1.364-.995 2.255z"/><path d="m103.958 69.665c5.821 0 9.296-4.887 9.296-13.073 0-7.902-3.342-12.62-8.94-12.62-5.647 0-9.295 5.068-9.295 12.93.086 9.41 4.674 12.763 8.939 12.763zm.194-19.498c1.667 0 2.261 3.386 2.261 6.555 0 4.099-.9 6.748-2.293 6.748-1.124 0-2.261-2.251-2.261-6.554-.001-4.384 1.181-6.749 2.293-6.749z"/><path d="m123.94 69.665c5.82 0 9.296-4.887 9.296-13.073 0-7.902-3.343-12.62-8.941-12.62-5.647 0-9.295 5.068-9.295 12.93.087 9.41 4.676 12.763 8.94 12.763zm.194-19.498c1.667 0 2.262 3.386 2.262 6.555 0 4.099-.9 6.748-2.294 6.748-1.124 0-2.261-2.251-2.261-6.554-.001-4.384 1.181-6.749 2.293-6.749z"/><path d="m140.236 69.279c0 2.677 3.243 4 5.126 2.117l24.611-24.921c1.174-1.176 1.171-3.072.001-4.242-1.133-1.134-3.107-1.138-4.248.004-26.685 27.02-25.49 25.31-25.49 27.042z"/><path d="m158.694 66.185c0 4.696 3.112 7.977 7.568 7.977 3.749 0 7.784-2.556 7.784-8.168 0-4.696-3.122-7.977-7.593-7.977-4.567 0-7.759 3.359-7.759 8.168zm9.193-.12c0 1.432-.657 2.512-1.528 2.512-.886 0-1.528-1.037-1.528-2.464 0-.419.076-2.512 1.576-2.512 1.44 0 1.48 2.44 1.48 2.464z"/><path d="m153.049 47.452c0-4.696-3.122-7.977-7.593-7.977-4.568 0-7.76 3.359-7.76 8.168 0 10.754 15.353 10.607 15.353-.191zm-7.641-2.392c1.44 0 1.48 2.44 1.48 2.464 0 1.432-.657 2.512-1.528 2.512-.886 0-1.528-1.037-1.528-2.464 0-.42.076-2.512 1.576-2.512z"/><path d="m46.225 93.398c-.287-.792-1.039-1.319-1.88-1.319h-3.323c-.841 0-1.592.526-1.879 1.316l-7.975 21.931c-.223.613-.133 1.296.241 1.831.375.534.986.853 1.638.853h3.038c.843 0 1.595-.528 1.881-1.32l1.295-3.585h6.813l1.295 3.585c.286.792 1.039 1.32 1.881 1.32h3.038c.652 0 1.263-.318 1.637-.852.375-.534.465-1.216.243-1.83zm-4.705 13.365 1.147-3.205 1.147 3.205z"/><path d="m75.231 91.953h-2.88c-1.104 0-2 .896-2 2v13.956c0 2.693-.988 3.792-3.412 3.792-2.414 0-3.443-1.134-3.443-3.792v-13.956c0-1.104-.896-2-2-2h-2.88c-1.104 0-2 .896-2 2v13.924c0 6.291 4.04 10.355 10.292 10.355 6.271 0 10.323-4.064 10.323-10.355v-13.924c0-1.105-.895-2-2-2z"/><path d="m96.529 91.953h-14.937c-1.104 0-2 .896-2 2v2.342c0 1.104.896 2 2 2h4.044v17.716c0 1.104.896 2 2 2h2.88c1.104 0 2-.896 2-2v-17.717h4.013c1.104 0 2-.896 2-2v-2.342c0-1.104-.896-1.999-2-1.999z"/><path d="m119.978 91.953h-2.88c-1.104 0-2 .896-2 2v7.684h-7.234v-7.684c0-1.104-.896-2-2-2h-2.88c-1.104 0-2 .896-2 2v22.058c0 1.104.896 2 2 2h2.88c1.104 0 2-.896 2-2v-8h7.234v8c0 1.104.896 2 2 2h2.88c1.104 0 2-.896 2-2v-22.058c0-1.105-.895-2-2-2z"/><path d="m139.631 91.921h-11.868c-1.104 0-2 .896-2 2v22.089c0 1.104.896 2 2 2h11.868c1.104 0 2-.896 2-2v-2.374c0-1.104-.896-2-2-2h-6.988v-3.595h6.038c1.104 0 2-.896 2-2v-2.374c0-1.104-.896-2-2-2h-6.038v-3.374h6.988c1.104 0 2-.896 2-2v-2.374c0-1.103-.896-1.998-2-1.998z"/><path d="m164.251 91.921h-2.88c-1.104 0-2 .896-2 2v10.877l-7.914-11.979c-.37-.561-.997-.897-1.669-.897h-2.88c-1.104 0-2 .896-2 2v22.089c0 1.104.896 2 2 2h2.88c1.104 0 2-.896 2-2v-10.898l7.913 12c.37.561.998.899 1.67.899h2.88c1.104 0 2-.896 2-2v-22.091c0-1.105-.896-2-2-2z"/><path d="m185.643 91.953h-14.938c-1.104 0-2 .896-2 2v2.342c0 1.104.896 2 2 2h4.044v17.716c0 1.104.896 2 2 2h2.88c1.104 0 2-.896 2-2v-17.717h4.014c1.104 0 2-.896 2-2v-2.342c0-1.104-.895-1.999-2-1.999z"/><path d="m194.978 91.953h-2.88c-1.104 0-2 .896-2 2v22.058c0 1.104.896 2 2 2h2.88c1.104 0 2-.896 2-2v-22.058c0-1.105-.895-2-2-2z"/><path d="m222.953 107.586h-3.449c-.782 0-1.492.456-1.818 1.167-.896 1.956-2.563 2.947-4.954 2.947-3.688 0-6.07-2.644-6.07-6.735 0-4.11 2.383-6.766 6.07-6.766 2.393 0 4.059 1 4.95 2.971.324.715 1.037 1.175 1.822 1.175h3.449c.659 0 1.275-.325 1.648-.868s.455-1.236.218-1.851c-1.919-4.984-6.438-7.959-12.088-7.959-7.419 0-13.014 5.717-13.014 13.298 0 7.545 5.595 13.235 13.014 13.235 5.65 0 10.169-2.95 12.086-7.891.239-.615.159-1.309-.214-1.854s-.99-.869-1.65-.869z"/></g></svg>