<svg id="Capa_1" enable-background="new 0 0 511.947 511.947" height="512" viewBox="0 0 511.947 511.947" width="512" xmlns="http://www.w3.org/2000/svg"><g><path d="m256.212 240.311c50.827 0 92.177-41.351 92.177-92.178 0-20.723-6.718-40.298-19.427-56.609-3.394-4.356-9.678-5.135-14.034-1.742-4.357 3.395-5.137 9.679-1.742 14.035 9.946 12.765 15.203 28.089 15.203 44.316 0 39.799-32.378 72.178-72.177 72.178s-72.177-32.379-72.177-72.178 32.378-72.177 72.177-72.177c5.523 0 10-4.478 10-10s-4.477-10-10-10c-50.827 0-92.177 41.351-92.177 92.177-.001 50.827 41.35 92.178 92.177 92.178z"/><path d="m292.862 84.56c4.761 0 8.841-3.32 9.8-8.04 1.073-5.374-2.384-10.651-7.85-11.76-6.045-1.222-11.95 3.408-11.95 9.81 0 5.499 4.448 9.99 10 9.99z"/><path d="m411.028 332.369c-1.531-14.398-10.639-26.252-23.122-31.781-10.314-4.565-17.962-3.203-31.327-3.358h-15.479l42.941-71.629c35.215-58.741 25.987-133.59-22.442-182.019-58.109-58.109-152.663-58.109-210.773 0-48.428 48.429-57.657 123.277-22.441 182.019l42.941 71.629h-33.24c-20.433 0-37.254 15.343-39.128 35.689-13.625 147.906-12.741 137.142-12.7 140.222.267 19.891 15.34 36.474 35.182 38.572 3.891.411-12.373.14 264.983.217 21.674 0 39.29-17.596 39.293-39.302-.001-3.93.449 2.877-14.688-140.259zm-39.074-15.14c9.892 0 18.14 7.418 19.186 17.254l2.055 19.341c-3.735 2.141-7.986 3.287-12.342 3.287-20.702 0-32.076-23.805-19.818-39.882zm-115.742-297.239c100.383 0 162.053 109.624 110.675 195.327l-87.225 145.498c-10.615 17.704-36.277 17.718-46.9 0l-87.225-145.498c-51.417-85.766 10.351-195.327 110.675-195.327zm-118.128 297.239h45.229l32.294 53.869c18.378 30.656 62.813 30.682 81.207 0l32.294-53.869h9.446c-10.328 29.151 11.363 59.882 42.298 59.882 4.995 0 9.909-.844 14.559-2.442l6.179 58.131-27.494-18.435c-13.534-9.076-30.749-9.719-44.924-1.686l-47.979 27.193c-5.623-4-59.24-42.141-66.929-47.611-16.628-11.829-38.596-12.553-55.967-1.846l-47.235 29.116 7.81-84.78c.92-9.988 9.18-17.522 19.212-17.522zm252.397 174.282c-3.772.794 12.489.269-264.935.419-11.392 0-20.254-9.763-19.212-21.063l2.434-26.425 60.024-36.999c10.517-6.481 23.815-6.043 33.879 1.117 8.976 6.385 87.945 62.561 98.319 69.941 4.492 3.195 10.737 2.158 13.945-2.352 3.202-4.501 2.148-10.744-2.352-13.945l-13.404-9.536 39.854-22.587c7.549-4.279 16.717-3.936 23.925.896l41.387 27.75c1.233 11.897 1.37 12.151 1.375 13.924.025 9.284-6.631 17.044-15.239 18.86z"/></g></svg>