<?xml version="1.0" encoding="utf-8"?>
<!-- Generator: Adobe Illustrator 21.1.0, SVG Export Plug-In . SVG Version: 6.00 Build 0)  -->
<svg version="1.1" id="Livello_1" xmlns="http://www.w3.org/2000/svg" xmlns:xlink="http://www.w3.org/1999/xlink" x="0px" y="0px"
	 viewBox="0 0 100 100" style="enable-background:new 0 0 100 100;" xml:space="preserve">
<style type="text/css">
	.st0{fill:url(#faccia_1_);}
	.st1{fill:#6A541F;}
	.st2{fill:#2F240B;}
	.st3{fill:#FF2121;}
	.st4{fill:#433410;}
	.st5{fill:#EF4A4A;}
</style>
<title>heart</title>
<g id="custom">
	<g id="heart">
		<g id="faccia_heart">
			
				<radialGradient id="faccia_1_" cx="43.63" cy="57.61" r="52.76" gradientTransform="matrix(1 0 0 -1 0 101.28)" gradientUnits="userSpaceOnUse">
				<stop  offset="0.58" style="stop-color:#FFE622"/>
				<stop  offset="0.64" style="stop-color:#F8DC1F"/>
				<stop  offset="0.74" style="stop-color:#E7C016"/>
				<stop  offset="0.85" style="stop-color:#D09B0A"/>
			</radialGradient>
			<circle id="faccia" class="st0" cx="50" cy="50" r="42.9"/>
			<path class="st1" d="M50,95.4C25,95.4,4.6,75,4.6,50S25,4.6,50,4.6S95.4,25,95.4,50S75,95.4,50,95.4z M50,9.6
				C27.7,9.6,9.6,27.7,9.6,50S27.7,90.4,50,90.4S90.4,72.3,90.4,50S72.3,9.6,50,9.6z"/>
		</g>
		<g id="bocca_heart">
			<path class="st2" d="M27.2,57.9c0,0,0.3,19.7,22.8,19.7s22.5-19.7,22.5-19.7H27.2z"/>
			<path class="st3" d="M43.9,75.1c-0.1-3.4,2.5-6.3,5.9-6.4s6.3,2.5,6.4,5.9c0,0.2,0,0.3,0,0.5"/>
			<path class="st4" d="M50,80.1c-24.7,0-25.3-22-25.3-22.2l2.5-2.5h45.3l2.5,2.5C75,58.1,74.7,80.1,50,80.1z M30.1,60.4
				C31,65.2,34.8,75.1,50,75.1c15.2,0,18.9-9.9,19.7-14.7H30.1z"/>
		</g>
		<g id="occhi_heart">
			<path class="st5" d="M60.6,47.2c-0.2-0.1-0.4-0.2-0.6-0.4l-6.4-10.6c-0.1-0.1-0.2-0.3-0.3-0.5c-0.1-0.2-0.3-0.6-0.5-1.1
				c-0.2-0.5-0.4-1.1-0.6-1.6c-0.2-0.6-0.2-1.2-0.3-1.9c0-0.7,0-1.3,0.2-2c0.4-1.8,1.5-3.3,3-4.3c1.6-0.8,3.6-1,5.3-0.4
				c0.6,0.2,1.2,0.4,1.7,0.8c0.5,0.3,1,0.8,1.4,1.2c0.4,0.5,0.8,0.9,1.1,1.3c0.3,0.4,0.6,0.8,0.8,1.2c0.4-0.2,0.9-0.5,1.3-0.7
				c0.4-0.2,1-0.4,1.6-0.6c0.6-0.2,1.2-0.3,1.9-0.4c0.6,0,1.2,0,1.8,0.2c1.8,0.4,3.4,1.5,4.4,3c0.9,1.6,1.1,3.5,0.5,5.2
				c-0.5,2-2.2,3.8-4.8,5.4l-10.8,6C61,47.3,60.8,47.3,60.6,47.2z"/>
			<path class="st5" d="M35.6,47.1l-10.8-6c-2.7-1.5-4.3-3.3-4.8-5.4c-0.6-1.7-0.4-3.6,0.5-5.2c1-1.5,2.6-2.6,4.4-3
				c0.6-0.2,1.2-0.2,1.8-0.2c0.6,0,1.3,0.2,1.9,0.4c0.6,0.2,1.1,0.4,1.6,0.6c0.4,0.2,0.9,0.4,1.3,0.7c0.2-0.4,0.5-0.8,0.8-1.2
				c0.3-0.4,0.6-0.8,1.1-1.3c0.4-0.5,0.9-0.9,1.4-1.2c0.5-0.3,1.1-0.6,1.7-0.8c1.7-0.6,3.7-0.4,5.3,0.4c1.5,0.9,2.6,2.5,3,4.3
				c0.2,0.7,0.2,1.3,0.2,2c0,0.6-0.1,1.2-0.3,1.8c-0.2,0.5-0.4,1.1-0.6,1.6c-0.2,0.5-0.4,0.9-0.5,1.1c-0.1,0.2-0.2,0.3-0.3,0.5
				l-6.4,10.6C36.6,47.2,36.1,47.4,35.6,47.1L35.6,47.1z"/>
		</g>
	</g>
</g>
</svg>
