<?xml version="1.0" encoding="utf-8"?>
<!-- Generator: Adobe Illustrator 21.1.0, SVG Export Plug-In . SVG Version: 6.00 Build 0)  -->
<svg version="1.1" id="vettori" xmlns="http://www.w3.org/2000/svg" xmlns:xlink="http://www.w3.org/1999/xlink" x="0px" y="0px"
	 viewBox="0 0 100 100" style="enable-background:new 0 0 100 100;" xml:space="preserve">
<style type="text/css">
	.st0{fill:url(#faccia_1_);}
	.st1{fill:#6A541F;}
	.st2{fill:#433410;}
</style>
<title>mad</title>
<g id="mad">
	<g id="faccia_mad">
		
			<radialGradient id="faccia_1_" cx="43.63" cy="57.61" r="52.76" gradientTransform="matrix(1 0 0 -1 0 101.28)" gradientUnits="userSpaceOnUse">
			<stop  offset="0.58" style="stop-color:#FFE622"/>
			<stop  offset="0.64" style="stop-color:#F8DC1F"/>
			<stop  offset="0.74" style="stop-color:#E7C016"/>
			<stop  offset="0.85" style="stop-color:#D09B0A"/>
		</radialGradient>
		<circle id="faccia" class="st0" cx="50" cy="50" r="42.9"/>
		<path class="st1" d="M50,95.4C25,95.4,4.6,75,4.6,50S25,4.6,50,4.6S95.4,25,95.4,50S75,95.4,50,95.4z M50,9.6
			C27.7,9.6,9.6,27.7,9.6,50S27.7,90.4,50,90.4S90.4,72.3,90.4,50S72.3,9.6,50,9.6z"/>
	</g>
	<path class="st2" d="M33.1,75.2l-4-3c0.2-0.3,5.9-7.8,18.5-7.8c12.6,0,18.1,7.5,18.3,7.8l-4.1,2.9c-0.2-0.2-4.4-5.7-14.3-5.7
		C37.7,69.4,33.3,75,33.1,75.2z"/>
	<g id="occhi_mad">
		<path class="st2" d="M55.2,44.4L50.4,43C53,33.8,64.7,29.8,70,29.8v5C65.8,34.8,57,38.1,55.2,44.4z"/>
		<circle class="st2" cx="55" cy="45" r="5"/>
		<path class="st2" d="M39.8,44.4c-1.8-6.3-10.6-9.6-14.8-9.6v-5c5.3,0,17,4,19.6,13.2L39.8,44.4z"/>
		<circle class="st2" cx="40.1" cy="45" r="5"/>
	</g>
</g>
</svg>
