<?xml version="1.0" encoding="utf-8"?>
<!-- Generator: Adobe Illustrator 21.1.0, SVG Export Plug-In . SVG Version: 6.00 Build 0)  -->
<svg version="1.1" id="Livello_1" xmlns="http://www.w3.org/2000/svg" xmlns:xlink="http://www.w3.org/1999/xlink" x="0px" y="0px"
	 viewBox="0 0 100 100" style="enable-background:new 0 0 100 100;" xml:space="preserve">
<style type="text/css">
	.st0{fill:url(#SVGID_1_);}
	.st1{fill:#FFFFFF;}
	.st2{fill:#6A541F;}
</style>
<title>thumbup</title>
<g id="custom">
	<g id="thumbup">
		
			<radialGradient id="SVGID_1_" cx="39.62" cy="53.93" r="52.76" gradientTransform="matrix(1 0 0 -1 0 101.28)" gradientUnits="userSpaceOnUse">
			<stop  offset="0.58" style="stop-color:#FFE622"/>
			<stop  offset="0.64" style="stop-color:#F8DC1F"/>
			<stop  offset="0.74" style="stop-color:#E7C016"/>
			<stop  offset="0.85" style="stop-color:#D09B0A"/>
		</radialGradient>
		<path class="st0" d="M77.4,82.4c1.8-2.2,2.6-5,2.3-8.5c1.2-1.2,2.1-2.7,2.5-4.4c0.5-1.8,0.5-3.7,0-5.5c1.4-1.8,2.1-4.1,2-6.4
			c0-1.2-0.3-2.4-0.7-3.6c1.7-1.9,2.6-4.4,2.6-7c-0.1-4.9-4.1-8.9-9-9h-13c0.1-0.4,0.2-0.8,0.4-1.1c0.1-0.3,0.3-0.7,0.5-1
			c0.2-0.4,0.4-0.7,0.5-0.8c0.6-1.1,1-1.9,1.3-2.6c0.4-0.9,0.7-1.9,0.9-2.8c0.3-1.2,0.4-2.4,0.4-3.6c0-0.8,0-1.4,0-1.8
			c-0.1-0.7-0.2-1.5-0.3-2.2c-0.1-0.8-0.3-1.6-0.6-2.4c-0.3-0.7-0.7-1.5-1.1-2.1c-0.5-0.8-1.1-1.4-1.9-1.9c-0.9-0.5-1.8-1-2.8-1.2
			c-1.3-0.3-2.6-0.5-3.9-0.5c-0.8,0-1.6,0.3-2.1,0.9c-0.7,0.7-1.2,1.5-1.6,2.4c-0.4,0.8-0.7,1.6-0.9,2.4c-0.2,0.7-0.4,1.6-0.6,2.9
			s-0.4,2.2-0.6,2.9c-0.2,0.8-0.5,1.5-0.8,2.3c-0.3,0.8-0.8,1.6-1.5,2.3c-1.7,1.8-3.3,3.7-4.8,5.6c-1.5,2-3.1,3.9-4.8,5.7
			c-1.6,1.8-2.8,2.7-3.6,2.8c-0.8,0.1-1.5,0.4-2,1c-0.5,0.5-0.8,1.2-0.8,2v30.1c0,0.8,0.3,1.6,0.9,2.1c0.6,0.6,1.3,0.9,2.1,0.9
			c1.1,0,3.6,0.7,7.4,2.1c2.4,0.8,4.3,1.4,5.7,1.9c1.4,0.4,3.3,0.9,5.7,1.4c2.2,0.5,4.5,0.7,6.8,0.7h6C72.3,86,75.4,84.8,77.4,82.4z
			"/>
		<path class="st1" d="M32.6,79.2c0.6-0.6,0.9-1.3,0.9-2.1V47c0-1.6-1.4-3-3-3H16.9c-1.6,0-3,1.4-3,3v30.1c0,1.6,1.4,3,3,3h13.5
			C31.2,80.1,32,79.8,32.6,79.2z"/>
		<path class="st2" d="M62,88.6c-2.5,0-4.9-0.3-7.3-0.8c-2.5-0.5-4.5-1-5.9-1.4c-1.4-0.4-3.3-1.1-5.7-1.9c-5.1-1.8-6.4-1.9-6.7-1.9
			c-1.4,0-2.8-0.6-3.8-1.7c-1-1-1.6-2.4-1.6-3.9V46.9c0-1.4,0.6-2.8,1.5-3.7c0.9-1,2.1-1.6,3.4-1.7c0.2-0.1,0.9-0.6,2.2-2
			c1.6-1.7,3.1-3.6,4.6-5.5c1.5-2,3.2-4,4.9-5.8c0.4-0.4,0.7-0.9,1-1.5l0-0.1c0.3-0.6,0.5-1.2,0.7-1.9c0.1-0.5,0.3-1.4,0.6-2.7
			c0.3-1.3,0.5-2.2,0.6-2.8l0-0.2c0.3-1,0.6-2,1.1-2.9c0.5-1.1,1.2-2.1,2.1-3c1-1.1,2.5-1.6,3.9-1.6c1.5,0,3,0.2,4.5,0.6
			c1.2,0.3,2.4,0.8,3.5,1.5c1.1,0.7,2,1.6,2.7,2.7c0.5,0.8,1,1.6,1.4,2.6c0.4,1,0.6,2,0.7,3c0.1,0.8,0.2,1.5,0.2,2.3l0,0.1v1.8
			c0,1.4-0.2,2.8-0.5,4.2c-0.2,1-0.6,2.1-1,3.1l0,0.1c-0.3,0.6-0.6,1.3-1,2.2h9.2c5.5,0.1,10,3.9,11.2,9h0.3l0.1,2.5
			c0,2.7-0.8,5.3-2.3,7.6c0.2,1,0.4,2,0.4,3c0.1,2.5-0.5,4.9-1.8,7c0.4,1.9,0.3,3.8-0.3,5.7c-0.4,1.7-1.3,3.3-2.4,4.7
			c0.1,3.7-0.9,6.8-2.9,9.2c-2.5,2.9-6.2,4.5-11.1,4.6H62z M53.1,28.6c-0.5,1.1-1.1,2.1-1.9,3c-1.6,1.7-3.1,3.5-4.6,5.4
			c-1.6,2.1-3.2,4-4.9,5.9c-2.2,2.4-3.7,3.5-5.2,3.6c-0.1,0-0.2,0.1-0.3,0.2L36,46.7c-0.1,0.1-0.1,0.1-0.1,0.2V77
			c0,0.1,0,0.2,0.1,0.3c0.2,0.2,0.3,0.2,0.5,0.2c1,0,2.7,0.3,8.2,2.2c2.4,0.8,4.3,1.4,5.6,1.8c1.3,0.4,3.1,0.8,5.4,1.3
			c2.1,0.4,4.2,0.7,6.3,0.7h6.1c3.4-0.1,5.8-1,7.4-2.8c1.4-1.7,2-3.8,1.7-6.7L77.1,73l0.8-0.8c0.9-0.9,1.5-2,1.8-3.2l0-0.1
			c0.4-1.3,0.4-2.7,0-4.1l-0.4-1.2l0.8-1c1-1.4,1.6-3.1,1.5-4.8c0-1-0.2-1.9-0.5-2.8l-0.5-1.4l1-1.1c1.1-1.2,1.7-2.7,1.9-4.3l0-1
			c-0.1-3.6-2.9-6.5-6.5-6.5l-16,0l0.6-3c0.1-0.5,0.2-1,0.4-1.5l0.1-0.2c0.2-0.5,0.4-0.9,0.7-1.3c0.2-0.3,0.3-0.6,0.4-0.7
			c0.5-1,0.9-1.8,1.2-2.4c0.3-0.8,0.6-1.6,0.8-2.4c0.3-1,0.4-2,0.4-3v-1.8c0-0.6-0.1-1.2-0.2-1.8c-0.1-0.7-0.2-1.3-0.5-1.9
			c-0.2-0.5-0.5-1-0.8-1.6c-0.3-0.5-0.7-0.9-1.2-1.2c-0.6-0.4-1.3-0.7-2.1-0.9c-1.1-0.3-2.1-0.4-3.2-0.4c-0.2,0-0.3,0-0.4,0.1
			c-0.5,0.5-0.8,1-1.1,1.6c-0.3,0.7-0.6,1.3-0.8,2c-0.1,0.6-0.3,1.5-0.6,2.8c-0.3,1.4-0.5,2.3-0.6,2.9
			C53.8,26.8,53.5,27.7,53.1,28.6z M36.1,41.5C36,41.5,36,41.5,36.1,41.5C36,41.5,36,41.5,36.1,41.5z"/>
		<path class="st2" d="M16.9,82.6c-3-0.1-5.4-2.5-5.5-5.5l0-30.1c0.1-3,2.5-5.4,5.5-5.5l13.6,0c2.2,0,4,1.2,4.9,3h0.6l0,2.5v30.1
			c0,3.1-2.4,5.4-5.5,5.5H16.9z M30.4,46.5l-13.5,0c-0.3,0-0.5,0.2-0.5,0.5l0,30.1c0,0.3,0.2,0.5,0.5,0.5h13.5
			c0.3,0,0.5-0.2,0.5-0.5l0-30C30.9,46.7,30.7,46.5,30.4,46.5z"/>
		<path d="M23.7,65.2c-1.3,0-2.6,0.5-3.5,1.4c-1.8,2-1.7,5.1,0.3,6.9c1.9,1.7,4.8,1.7,6.6,0c1.9-1.9,1.9-5,0-6.9
			C26.2,65.7,24.9,65.2,23.7,65.2L23.7,65.2z"/>
	</g>
</g>
</svg>
